<?xml version="1.0" encoding="UTF-8" standalone="no"?>
<!-- Created with Inkscape (http://www.inkscape.org/) -->

<svg
   width="200"
   height="200"
   viewBox="0 0 52.916665 52.916666"
   version="1.1"
   id="svg1"
   xml:space="preserve"
   inkscape:version="1.4.2 (ebf0e940d0, 2025-05-08)"
   sodipodi:docname="connection_manager.svg"
   xmlns:inkscape="http://www.inkscape.org/namespaces/inkscape"
   xmlns:sodipodi="http://sodipodi.sourceforge.net/DTD/sodipodi-0.dtd"
   xmlns="http://www.w3.org/2000/svg"
   xmlns:svg="http://www.w3.org/2000/svg"><sodipodi:namedview
     id="namedview1"
     pagecolor="#ffffff"
     bordercolor="#666666"
     borderopacity="1.0"
     inkscape:showpageshadow="2"
     inkscape:pageopacity="0.0"
     inkscape:pagecheckerboard="0"
     inkscape:deskcolor="#d1d1d1"
     inkscape:document-units="mm"
     inkscape:zoom="3.4123655"
     inkscape:cx="215.97921"
     inkscape:cy="116.78116"
     inkscape:window-width="2560"
     inkscape:window-height="1361"
     inkscape:window-x="0"
     inkscape:window-y="0"
     inkscape:window-maximized="1"
     inkscape:current-layer="layer1" /><defs
     id="defs1" /><g
     inkscape:label="Layer 1"
     inkscape:groupmode="layer"
     id="layer1"><path
       style="fill:#00aad4;stroke-width:0.394746"
       d="m 32.466729,45.389589 -0.100349,-0.11941 0.0105,-2.060233 0.0105,-2.060237 0.110978,-0.222323 c 0.180353,-0.361776 0.59862,-0.660969 0.988541,-0.707149 0.190056,-0.02254 0.190788,-0.02303 0.165335,-0.141868 -0.100349,-0.469529 -0.355914,-0.942657 -0.907441,-1.680027 -0.569124,-0.760916 -0.721184,-0.995495 -0.955074,-1.473299 -0.16394,-0.334707 -0.287358,-0.645431 -0.794041,-1.997116 -0.05523,-0.147879 -0.116901,-0.279598 -0.13624,-0.292744 -0.01934,-0.01341 -0.144969,-0.03512 -0.279168,-0.04887 -0.510144,-0.05227 -1.28753,-0.332091 -1.818303,-0.654522 -0.468748,-0.283861 -1.241018,-0.98718 -1.902043,-1.730892 -0.187631,-0.211121 -0.455867,-0.504829 -0.596082,-0.652695 -0.140369,-0.14786 -0.456326,-0.493516 -0.702503,-0.768118 -1.145788,-1.278137 -1.957208,-1.946504 -2.685891,-2.212445 -0.695182,-0.253708 -0.789604,-0.26418 -2.384665,-0.264476 l -1.448701,-2.67e-4 -0.0105,2.352367 -0.0105,2.35237 -0.108679,0.22152 c -0.143173,0.291423 -0.4126,0.562758 -0.69775,0.702507 l -0.230443,0.112911 -3.060297,0.0105 -3.060296,0.0105 -0.01219,0.08576 c -0.0067,0.04718 -0.007,0.314678 -5.13e-4,0.594481 l 0.01184,0.508737 0.201837,0.09549 c 0.257218,0.121693 0.606954,0.473282 0.743881,0.747842 0.05845,0.117215 0.123556,0.225959 0.144671,0.241619 0.0211,0.01568 0.941567,0.0281 2.045427,0.02763 1.298414,-3.96e-4 2.032981,0.01306 2.080547,0.03845 0.213933,0.114497 0.29768,0.418062 0.178783,0.647996 -0.114027,0.220552 -0.08255,0.217569 -2.299635,0.217569 -1.771171,0 -2.038626,0.0075 -2.062478,0.0576 -0.01498,0.03169 -0.0602,0.125858 -0.100243,0.209306 -0.08646,0.180114 -0.4471,0.580441 -0.587899,0.652646 -0.551307,0.282715 -1.346816,0.226144 -1.778622,-0.126473 C 10.19811,37.875594 10.017841,37.634332 9.9590469,37.435212 L 9.9105799,37.27108 7.8270185,37.26948 5.7434591,37.26788 5.6132994,37.125875 c -0.1984678,-0.216553 -0.1712929,-0.514038 0.062841,-0.687757 0.09197,-0.06824 0.2020079,-0.07188 2.1414735,-0.07057 l 2.0445236,0.0012 0.095037,-0.214903 c 0.1226845,-0.277374 0.5434035,-0.70289 0.7970835,-0.806147 l 0.182274,-0.07418 1.43e-4,-0.604894 1.42e-4,-0.604898 -2.9860676,-3.95e-4 C 4.758771,34.062942 4.77628,34.063731 4.4668377,33.872602 4.2665998,33.748854 3.9883046,33.426194 3.8770322,33.188787 L 3.7741031,32.969182 v -10.63802 -10.63847 l 0.089131,-0.220697 c 0.1244103,-0.308094 0.4128051,-0.611563 0.7292022,-0.767323 l 0.2554254,-0.125735 h 6.5682373 6.568232 l 0.215437,0.105787 c 0.269612,0.132407 0.5817,0.45782 0.717995,0.748629 l 0.103519,0.220939 0.0105,3.888609 0.0105,3.88861 h 1.282908 c 1.441077,0 1.71455,-0.02565 2.281103,-0.213933 0.739059,-0.24561 1.210126,-0.570103 1.983875,-1.366645 0.439576,-0.452526 1.537171,-1.690706 2.190657,-2.471266 0.812946,-0.97105 1.267892,-1.408047 1.885987,-1.811657 0.768657,-0.50193 1.562599,-0.730859 2.670786,-0.770137 l 0.602452,-0.02132 0.04809,-0.116415 c 0.07927,-0.191437 0.465253,-0.554935 0.711792,-0.670386 l 0.224238,-0.105014 3.224617,-0.0092 3.224636,-0.0092 0.04513,-0.152511 c 0.111675,-0.378223 0.463895,-0.772934 0.85211,-0.954886 0.194412,-0.09115 0.265703,-0.102929 0.622835,-0.102929 0.356419,0 0.428598,0.01185 0.621251,0.102181 0.388023,0.181886 0.681217,0.512971 0.823119,0.929412 l 0.0608,0.178203 h 3.042534 c 3.141706,0 3.334428,0.0085 3.654191,0.158663 0.308682,0.145106 0.643132,0.558942 0.725312,0.8975 0.06133,0.252933 0.02719,0.630398 -0.07857,0.865769 -0.114115,0.254373 -0.40013,0.550542 -0.671112,0.695036 l -0.169865,0.09066 -3.238625,0.01915 -3.238642,0.01915 -0.07352,0.208552 c -0.131362,0.37335 -0.458494,0.745626 -0.779843,0.887782 -0.264848,0.117128 -0.668655,0.168314 -0.944654,0.119707 -0.59787,-0.105333 -0.974516,-0.429418 -1.234679,-1.062419 l -0.06324,-0.15372 -3.240314,-0.01915 -3.240332,-0.01915 -0.211137,-0.109567 C 32.365329,14.323255 32.196319,14.163145 32.052465,13.9108 L 31.93748,13.709157 h -0.518391 c -0.862852,0 -1.555487,0.186006 -2.25462,0.605435 -0.395942,0.237522 -0.985672,0.801926 -1.572201,1.504591 -0.256746,0.307557 -0.605171,0.71625 -0.774331,0.908209 -0.169203,0.191945 -0.463116,0.528941 -0.653218,0.74885 -0.190057,0.219897 -0.5012,0.562138 -0.691303,0.760513 -1.114081,1.162478 -1.664102,1.552795 -2.626622,1.863952 -0.664492,0.214833 -0.804512,0.228503 -2.366167,0.231122 l -1.421028,0.0022 -0.0105,0.549978 -0.0105,0.549981 2.046199,-0.01533 c 2.197565,-0.0162 2.283237,-0.02303 3.114875,-0.239024 0.586408,-0.152355 0.909793,-0.289223 2.291842,-0.969946 0.707618,-0.348546 1.421343,-0.691864 1.586043,-0.762934 0.930423,-0.40148 2.215651,-0.634421 3.45766,-0.626693 0.33431,0.0019 0.612225,-0.0019 0.617609,-0.0092 0.007,-0.0073 0.05766,-0.151345 0.116031,-0.320323 0.205074,-0.59199 0.387394,-0.884783 0.827805,-1.329473 0.422448,-0.426577 0.718866,-0.629739 1.192378,-0.817264 1.24785,-0.494189 2.655547,-0.237956 3.60933,0.657007 0.45332,0.425367 0.850228,1.054127 1.000998,1.585745 0.02684,0.09506 0.06499,0.194006 0.08468,0.219848 0.02771,0.03671 1.188911,0.04676 5.290952,0.04582 5.901158,-0.0012 5.42909,-0.02589 5.548972,0.288032 0.06237,0.163295 0.06202,0.177934 -0.007,0.315187 -0.0392,0.07918 -0.117076,0.177306 -0.173175,0.218105 -0.09913,0.07236 -0.229081,0.07433 -5.319228,0.08019 -2.869714,0.0031 -5.236978,0.0182 -5.260603,0.03303 -0.02422,0.01481 -0.05452,0.129673 -0.06882,0.255074 -0.03449,0.305068 -0.16394,0.762176 -0.259396,0.916758 -0.09965,0.160961 -0.197321,0.211438 -0.401611,0.20734 -0.192478,-0.0038 -0.289205,-0.05568 -0.375026,-0.200988 -0.08589,-0.145161 -0.07822,-0.254936 0.04077,-0.600943 0.09042,-0.262952 0.102788,-0.358783 0.104007,-0.798111 0.0012,-0.443092 -0.0105,-0.532108 -0.100529,-0.791026 -0.141815,-0.40621 -0.336402,-0.721374 -0.62639,-1.014235 -0.410341,-0.414385 -0.803398,-0.626922 -1.355605,-0.733003 -0.567678,-0.109061 -1.04483,-0.04153 -1.578327,0.223388 -0.457919,0.227387 -0.958906,0.722885 -1.167674,1.154897 -0.349188,0.72251 -0.381977,1.367025 -0.107144,2.108439 0.07857,0.212188 0.07857,0.268976 -0.0016,0.437262 -0.07718,0.162147 -0.358352,0.259121 -0.559925,0.192942 -0.193679,-0.06354 -0.411855,-0.553195 -0.489836,-1.098587 -0.05017,-0.350831 0.0378,-0.32121 -0.877998,-0.295784 -1.613556,0.0448 -2.426917,0.275974 -4.229923,1.202212 -1.060943,0.545028 -1.489513,0.734889 -2.200233,0.97472 -0.588857,0.19871 -1.229374,0.325543 -1.86989,0.370274 -0.190783,0.01341 -1.141568,0.02632 -2.113254,0.02899 l -1.76666,0.0049 -0.0105,0.528083 c -0.0082,0.408906 3.9e-4,0.527939 0.03841,0.527452 0.02708,-3.46e-4 1.068764,0.0054 2.315058,0.01289 2.051097,0.01184 2.329658,0.02132 2.938055,0.09737 1.134976,0.141953 1.638623,0.238878 2.669212,0.513633 2.195312,0.585299 2.713214,0.652391 5.011989,0.649328 l 1.67068,-0.0022 0.007,-2.634794 c 0.007,-2.532781 0.0105,-2.644799 0.08502,-2.893038 0.239987,-0.790051 0.946659,-1.311213 1.778018,-1.311213 0.669945,0 1.277798,0.347493 1.592613,0.910453 0.267898,0.47903 0.260615,0.400055 0.266696,2.891746 0.0052,1.23571 0.007,2.258753 0.0105,2.273433 0.0017,0.01481 0.09582,-0.01481 0.206538,-0.06526 0.77662,-0.354102 1.873126,-0.03714 2.281356,0.659463 l 0.09739,0.16645 2.041457,0.0031 c 1.122812,0.0019 2.248864,0.005 2.502371,0.0075 0.778693,0.007 1.177151,-0.0089 1.154103,-0.04619 -0.01219,-0.01939 -0.314224,-0.270057 -0.67167,-0.55701 -0.357447,-0.286952 -0.687298,-0.569203 -0.733048,-0.627225 -0.15523,-0.196724 -0.03886,-0.540788 0.219151,-0.64857 0.194413,-0.0813 0.312063,-0.0405 0.659683,0.228744 0.371315,0.287604 2.022658,1.67315 2.290608,1.921926 l 0.191991,0.178298 -0.190301,0.176529 c -0.378632,0.351364 -1.697912,1.456629 -1.858037,1.556623 -0.12387,0.0774 -0.124044,0.120717 -0.0016,0.303316 0.06202,0.09227 0.151048,0.289667 0.197809,0.438663 l 0.08537,0.270899 v 3.494946 c 0,3.210348 -0.007,3.529351 -0.07055,3.917416 -0.1338,0.80327 -0.246556,1.249815 -0.755504,2.995669 -0.158714,0.544244 -0.345461,1.492408 -0.345461,1.753516 0,0.154446 -0.01219,0.146031 0.3375,0.22523 0.401419,0.09081 0.819285,0.503922 0.931536,0.920925 0.03327,0.123538 0.04809,0.733779 0.05122,2.138287 0.0052,1.942805 0.0052,1.966731 -0.07614,2.073935 l -0.08102,0.108453 -6.665405,0.0105 -6.66539,0.0105 z m 12.690679,-2.400237 v -1.59768 l -0.130665,-0.13056 -0.130666,-0.130561 h -5.662335 -5.662318 l -0.139725,0.124777 -0.139551,0.124794 -0.007,1.536237 c -0.0052,0.844931 -0.0052,1.566482 -0.0012,1.603463 0.007,0.06364 0.315582,0.06715 5.939102,0.06715 h 5.933735 z m -1.343009,-2.790197 c 8.02e-4,-0.0054 0.0105,-0.130561 0.02178,-0.278443 0.05192,-0.671786 0.108539,-0.917748 0.741044,-3.206906 0.108191,-0.39078 0.243699,-0.909263 0.301697,-1.15218 l 0.105407,-0.441668 v -3.63215 -3.63215 l -0.104188,-0.15774 c -0.208714,-0.315452 -0.393632,-0.439993 -0.727246,-0.489758 -0.4394,-0.06556 -0.92711,0.253343 -1.023053,0.668985 -0.02613,0.113888 -0.04652,0.475664 -0.04652,0.833833 0,0.675667 -0.02544,0.792111 -0.200491,0.914577 -0.109759,0.07692 -0.346924,0.07681 -0.495882,-2.2e-4 -0.216486,-0.111919 -0.225458,-0.181134 -0.225458,-1.716943 v -1.395515 l -0.09774,-0.195972 c -0.188122,-0.377172 -0.454243,-0.553756 -0.838485,-0.555977 -0.383005,-0.0022 -0.65876,0.158367 -0.860105,0.500889 l -0.104877,0.17837 -0.01934,1.248198 c -0.02178,1.34544 -0.02474,1.372331 -0.229569,1.478234 -0.194413,0.100594 -0.374973,0.07556 -0.523096,-0.07258 l -0.130664,-0.13056 -7.66e-4,-1.760918 c -3.84e-4,-0.968508 -0.01742,-1.828776 -0.03589,-1.91171 -0.127355,-0.548834 -0.798816,-0.868181 -1.337957,-0.636259 -0.203872,0.08773 -0.398998,0.272413 -0.480847,0.455267 -0.03153,0.07071 -0.05121,0.617689 -0.06464,1.810414 -0.02177,1.84976 -0.01393,1.796365 -0.232478,1.949105 -0.108366,0.07586 -0.353981,0.06814 -0.480951,-0.01498 -0.219396,-0.14368 -0.208246,0.111483 -0.209204,-4.822188 -8.01e-4,-4.486033 -0.0017,-4.545604 -0.07909,-4.71625 -0.349641,-0.773272 -1.333076,-0.805867 -1.738138,-0.0576 l -0.08345,0.153627 -0.01934,6.726631 c -0.01934,6.656967 -0.02178,6.727557 -0.09599,6.816442 -0.133279,0.155857 -0.187879,0.1846 -0.352308,0.185861 -0.115334,7.91e-4 -0.191747,-0.02519 -0.272219,-0.09296 -0.105407,-0.08868 -0.66099,-0.917377 -1.385778,-2.066821 -0.668605,-1.060397 -1.098702,-1.688439 -1.237797,-1.807519 -0.280269,-0.239898 -0.741176,-0.330543 -1.037338,-0.204019 -0.174782,0.07469 -0.396159,0.318303 -0.457198,0.503271 -0.0269,0.08154 -0.04001,0.252822 -0.03078,0.398682 0.01446,0.229037 0.05381,0.33188 0.374317,0.985449 1.360591,2.774263 1.441725,2.955343 2.078045,4.637554 0.437013,1.155316 0.62348,1.485439 1.468115,2.598947 0.503374,0.663618 0.780505,1.240422 0.87326,1.817721 l 0.04792,0.297647 h 4.622662 c 2.542476,0 4.62322,-0.0043 4.623864,-0.0093 z m -5.217431,-1.593848 c -0.01934,-0.03695 -0.08416,-0.244481 -0.145473,-0.461141 -0.08589,-0.303748 -0.128923,-0.399405 -0.188105,-0.417863 -0.04216,-0.01341 -0.185458,-0.07659 -0.318178,-0.140892 L 37.70376,37.46844 37.298979,37.670666 c -0.268526,0.134149 -0.433199,0.195097 -0.489123,0.181061 -0.04634,-0.01167 -0.270058,-0.209691 -0.497102,-0.440105 -0.323996,-0.328784 -0.407151,-0.43449 -0.386279,-0.491169 0.01393,-0.03974 0.109758,-0.223483 0.211886,-0.408363 0.101738,-0.184892 0.185195,-0.349462 0.185195,-0.365742 0,-0.07905 -0.262706,-0.64117 -0.310372,-0.664072 -0.02979,-0.01445 -0.231747,-0.08133 -0.448146,-0.148748 l -0.393667,-0.122546 v -0.66643 -0.666431 l 0.163069,-0.06009 c 0.08989,-0.03305 0.2883,-0.0938 0.441161,-0.135002 0.321539,-0.08665 0.355774,-0.103732 0.355774,-0.177281 0,-0.02985 0.04443,-0.154132 0.09843,-0.276175 0.05801,-0.130613 0.09059,-0.261519 0.0798,-0.31814 -0.0105,-0.05294 -0.09774,-0.234394 -0.194168,-0.403267 -0.09652,-0.168872 -0.175509,-0.338359 -0.175509,-0.376634 -4.01e-4,-0.100402 0.829077,-0.910581 0.9307,-0.909031 0.02666,3.91e-4 0.210423,0.08682 0.40872,0.192042 0.378789,0.201062 0.477379,0.223388 0.59449,0.134689 0.0392,-0.02981 0.164637,-0.08347 0.278438,-0.119236 0.11394,-0.03581 0.207024,-0.0853 0.207024,-0.110038 0,-0.02471 0.05819,-0.225424 0.129447,-0.446014 0.11934,-0.368717 0.13833,-0.403026 0.239988,-0.425332 0.178662,-0.03921 1.037775,-0.03662 1.1433,0.0033 0.08188,0.03122 0.118121,0.103944 0.235388,0.476523 0.124916,0.396086 0.148784,0.442207 0.241695,0.465113 0.05679,0.01411 0.204831,0.07085 0.329311,0.126397 l 0.22619,0.100964 0.157843,-0.08888 c 0.298177,-0.167808 0.595344,-0.310431 0.646808,-0.310431 0.07805,0 0.912947,0.816099 0.912947,0.892506 0,0.03671 -0.08902,0.245677 -0.19781,0.464399 l -0.197826,0.397671 0.130664,0.311555 0.130665,0.31155 0.268839,0.07994 c 0.147914,0.04397 0.355252,0.109741 0.460864,0.14617 l 0.192235,0.06626 0.0105,0.644625 0.0105,0.644627 -0.173523,0.0767 c -0.09547,0.04218 -0.290233,0.106588 -0.432989,0.143105 -0.315424,0.08065 -0.34053,0.09546 -0.371698,0.219701 -0.01393,0.05394 -0.06551,0.187002 -0.115334,0.295733 -0.09791,0.213013 -0.09599,0.22986 0.05313,0.490251 0.05435,0.09506 0.14077,0.26443 0.192235,0.376393 l 0.09303,0.203559 -0.468983,0.468541 -0.468981,0.468537 -0.427014,-0.225425 -0.427013,-0.225425 -0.234901,0.104516 c -0.12927,0.05747 -0.276956,0.124377 -0.328439,0.148715 -0.05888,0.02779 -0.105926,0.09412 -0.126832,0.17854 -0.01934,0.07387 -0.07614,0.276883 -0.128399,0.451153 l -0.09495,0.316847 H 39.30061 c -0.599054,0 -0.673115,-0.007 -0.703622,-0.06719 z m 1.066348,-0.460871 c 0.02177,-0.07922 0.04007,-0.159446 0.04025,-0.178299 1.05e-4,-0.0189 0.03466,-0.149985 0.07683,-0.291374 0.07631,-0.255695 0.162198,-0.34647 0.328648,-0.34647 0.03083,0 0.22302,-0.07969 0.427431,-0.177086 l 0.371507,-0.17711 0.11812,0.07047 c 0.256941,0.153435 0.581285,0.320434 0.623847,0.321265 0.06621,0.0012 0.473564,-0.381793 0.473564,-0.445377 0,-0.02996 -0.08729,-0.225157 -0.193924,-0.433763 l -0.193943,-0.379287 0.134846,-0.26437 c 0.07421,-0.145404 0.161154,-0.365873 0.193454,-0.48994 0.0324,-0.124061 0.06359,-0.228527 0.06917,-0.232115 0.0324,-0.02086 0.608096,-0.186661 0.720712,-0.207582 l 0.134499,-0.02496 0.0105,-0.271332 c 0.01934,-0.431852 3.84e-4,-0.453761 -0.421037,-0.534138 -0.197077,-0.03758 -0.38419,-0.08152 -0.415845,-0.09767 -0.03153,-0.01603 -0.08659,-0.140596 -0.122127,-0.276589 -0.03572,-0.135979 -0.1176,-0.356743 -0.182287,-0.490576 -0.06499,-0.133835 -0.118121,-0.264011 -0.118121,-0.28928 0,-0.02526 0.07596,-0.173418 0.168471,-0.329247 0.25051,-0.421059 0.250458,-0.411883 0.0017,-0.645742 -0.248402,-0.234905 -0.258629,-0.234951 -0.661618,-0.0027 -0.146693,0.08459 -0.300912,0.153836 -0.342603,0.153836 -0.04164,0 -0.209464,-0.06912 -0.372709,-0.153626 -0.163069,-0.08451 -0.322097,-0.153627 -0.352934,-0.153627 -0.03084,0 -0.0946,-0.02013 -0.141989,-0.04439 -0.04722,-0.02441 -0.110978,-0.05606 -0.141815,-0.07036 -0.03083,-0.01428 -0.07055,-0.08507 -0.08798,-0.157251 -0.01934,-0.0722 -0.06742,-0.247911 -0.110281,-0.390494 l -0.07822,-0.259242 h -0.336861 -0.336872 l -0.08468,0.297647 c -0.165508,0.582366 -0.139375,0.546147 -0.483477,0.661613 -0.168993,0.05668 -0.394312,0.152216 -0.500848,0.212358 -0.218176,0.123069 -0.147389,0.138644 -0.677942,-0.148941 -0.141291,-0.07662 -0.271137,-0.13934 -0.288246,-0.13934 -0.01742,0 -0.130839,0.09667 -0.253036,0.214879 l -0.221817,0.214879 0.102968,0.178783 c 0.0568,0.09834 0.15314,0.269111 0.214778,0.37951 l 0.111675,0.200723 -0.112895,0.240938 c -0.06202,0.132512 -0.143209,0.335997 -0.180108,0.452174 -0.08624,0.272094 -0.143731,0.334148 -0.339067,0.366682 -0.08782,0.01481 -0.267827,0.05977 -0.399852,0.100338 l -0.239987,0.07375 v 0.345065 c 0,0.398036 -0.0385,0.360306 0.518479,0.505572 0.168992,0.04408 0.323769,0.107633 0.343944,0.141276 0.02178,0.03362 0.07491,0.170003 0.121606,0.303023 0.04687,0.133034 0.129444,0.327134 0.183993,0.431362 0.05453,0.10424 0.09913,0.207945 0.09913,0.230466 0,0.02254 -0.05958,0.134132 -0.132408,0.248003 -0.073,0.113886 -0.168817,0.278273 -0.213088,0.365337 l -0.08067,0.158278 0.240494,0.231777 0.240476,0.231774 0.270249,-0.144863 c 0.148784,-0.07969 0.279082,-0.157721 0.28985,-0.173454 0.0105,-0.01568 0.06568,-0.04014 0.121954,-0.05425 0.07805,-0.01963 0.191746,0.01844 0.479679,0.160352 0.207495,0.102321 0.429504,0.204527 0.493233,0.227144 0.102968,0.03655 0.128052,0.07915 0.226435,0.383878 0.185439,0.574921 0.128051,0.515601 0.499888,0.515601 h 0.325582 z m -0.727682,-1.622222 c -0.609909,-0.116867 -1.145495,-0.495439 -1.380117,-0.975499 -0.198541,-0.406084 -0.236834,-0.533277 -0.26025,-0.860208 -0.06865,-0.962132 0.572052,-1.840685 1.518762,-2.0827 0.216242,-0.0553 0.714894,-0.05338 0.952407,0.0033 0.874914,0.210201 1.491409,0.959964 1.532629,1.863946 0.01393,0.308879 0.0052,0.386123 -0.09163,0.656917 -0.251521,0.718699 -0.669108,1.152799 -1.284855,1.335652 -0.236118,0.07014 -0.762855,0.101187 -0.987128,0.05822 z m 0.977495,-0.591078 c 0.944917,-0.467 1.196089,-1.589189 0.529872,-2.367497 -0.708185,-0.82736 -2.022309,-0.660884 -2.5038,0.317197 -0.376367,0.764464 -0.07195,1.683139 0.674126,2.033597 0.482346,0.226611 0.865123,0.231533 1.299802,0.01672 z m -28.12697,1.417061 c 0.373511,-0.243156 0.349761,-0.933806 -0.03894,-1.132101 -0.278992,-0.142321 -0.640754,-0.09786 -0.814658,0.100126 -0.197499,0.224843 -0.242534,0.560582 -0.110037,0.820303 0.166711,0.326787 0.630358,0.428637 0.963625,0.21168 z m 18.66172,-3.73666 c 0,-0.0162 -0.330319,-0.69473 -0.734043,-1.507435 -0.831565,-1.673921 -0.917404,-1.88754 -0.917404,-2.282833 0,-0.540091 0.178177,-0.968332 0.544567,-1.307361 0.737094,-0.682414 1.758018,-0.683597 2.483765,-0.0027 0.30431,0.285422 0.71256,0.862773 1.599601,2.262123 0.126483,0.199947 0.23659,0.357888 0.243907,0.350988 0.03118,-0.02899 0.04652,-5.382856 0.01742,-5.465294 l -0.03362,-0.09003 -1.260812,0.0041 c -2.450722,0.0082 -3.26973,-0.0916 -5.590275,-0.681241 -0.812125,-0.206346 -1.643834,-0.379077 -2.457995,-0.510463 -0.196116,-0.03163 -1.088892,-0.05147 -2.794035,-0.06206 l -2.505998,-0.01551 v 0.536724 0.536729 l 2.025915,0.01794 c 1.237104,0.01097 2.142996,0.03537 2.326604,0.06254 0.844752,0.124916 1.956893,0.501087 2.675784,0.905103 0.179631,0.10089 0.361808,0.202808 0.404982,0.226443 0.327677,0.179342 1.898592,1.180435 1.99825,1.273428 0.23563,0.219826 0.201934,0.592626 -0.06618,0.731232 -0.211632,0.10948 -0.344404,0.06427 -0.921262,-0.31366 -0.998712,-0.654324 -2.009158,-1.225614 -2.644754,-1.495301 -0.403165,-0.171066 -1.10848,-0.353181 -1.638427,-0.423067 -0.399264,-0.05264 -0.807472,-0.06483 -2.1446,-0.06384 -0.908289,7.89e-4 -1.733529,0.0027 -1.833875,0.0046 l -0.18242,0.0031 v 0.534648 0.534648 l 1.545835,0.01655 c 1.395478,0.01498 1.577608,0.02432 1.872291,0.09581 0.883659,0.214419 1.58003,0.581823 2.289563,1.207944 0.439018,0.387418 1.716342,1.725566 2.759684,2.891151 1.031221,1.152028 1.547255,1.555527 2.437898,1.906247 0.364233,0.143417 0.501319,0.175873 0.501319,0.118679 z M 17.842022,33.077955 c 0.06922,-0.03529 0.159707,-0.119236 0.20123,-0.186517 0.0746,-0.120717 0.07561,-0.236697 0.07561,-8.976438 1.03e-4,-7.988115 -0.0063,-8.85636 -0.05994,-8.877111 -0.03307,-0.01254 -3.057257,-0.02303 -6.720633,-0.02328 l -6.660689,-2.57e-4 0.00262,8.8046 c 0.00142,4.842528 0.011324,8.856447 0.022301,8.919816 0.027178,0.159899 0.1676343,0.322597 0.3253538,0.376829 0.100838,0.03466 1.6409748,0.04335 6.4104692,0.03606 5.779294,-0.0089 6.28775,-0.01481 6.403488,-0.07377 z M 9.8405035,25.84805 C 9.4495475,25.78385 8.9263953,25.405579 8.7555851,25.06356 8.6693981,24.891014 8.5970453,24.847883 8.3920156,24.846865 8.2273955,24.846074 7.833406,24.700729 7.6378931,24.568732 7.2938071,24.336396 7.0352109,24.025826 6.9052656,23.688864 6.7793221,23.362354 6.7327879,22.967453 6.7902108,22.712898 6.8181906,22.588871 6.8091136,22.570142 6.6610094,22.44367 6.5733941,22.368911 6.4458147,22.235142 6.3774335,22.146418 6.3090696,22.057688 6.235061,21.96361 6.2129525,21.93738 6.1648853,21.88027 6.0272115,21.57006 5.9784857,21.409002 c -0.076221,-0.251817 -0.083294,-0.729617 -0.014809,-1.002455 0.06028,-0.240382 0.1949277,-0.582252 0.2480403,-0.6298 0.011847,-0.0105 0.072197,-0.09396 0.1341841,-0.185328 0.062006,-0.09136 0.1958981,-0.229642 0.2975222,-0.30725 l 0.184795,-0.141134 -0.025384,-0.192043 c -0.042423,-0.320732 -0.017457,-0.657059 0.064914,-0.87742 0.1813298,-0.484679 0.549634,-0.900925 0.9782705,-1.105654 0.2263221,-0.108105 0.2794627,-0.122008 0.6407483,-0.167949 0.1690803,-0.02157 0.1867335,-0.03503 0.2942342,-0.225496 0.3294545,-0.583762 1.0506957,-0.911081 1.7040047,-0.773325 0.298785,0.06297 0.586666,0.209981 0.776569,0.396519 l 0.144654,0.14206 0.158644,-0.146467 c 0.335511,-0.309741 0.908404,-0.488711 1.320509,-0.412531 0.467722,0.08647 1.024918,0.487304 1.190281,0.856277 0.06126,0.136675 0.07369,0.144027 0.244186,0.144027 0.502875,0 1.110974,0.382447 1.451255,0.91273 0.208722,0.325274 0.320014,0.900446 0.240453,1.242739 -0.03162,0.135996 -0.02571,0.146014 0.260838,0.442755 0.470694,0.487417 0.641466,0.919475 0.608869,1.540463 -0.03197,0.609351 -0.211169,1.003085 -0.653698,1.436475 -0.220262,0.215704 -0.221812,0.218807 -0.187341,0.37228 0.01915,0.08511 0.02879,0.246466 0.02135,0.358562 -0.02985,0.455824 -0.184844,0.789254 -0.536036,1.152972 -0.39523,0.409331 -0.632686,0.527894 -1.25065,0.624463 -0.115629,0.0182 -0.149811,0.04669 -0.206928,0.1734 -0.09921,0.220067 -0.414032,0.519708 -0.685958,0.652936 -0.598566,0.293269 -1.208796,0.230587 -1.755391,-0.180286 l -0.233327,-0.175413 -0.141397,0.133401 c -0.340667,0.321412 -0.880688,0.466611 -1.4113527,0.379483 z m 0.8274025,-0.791755 c 0.09456,-0.06364 0.224188,-0.193062 0.288045,-0.287642 l 0.1161,-0.171938 0.0105,-3.705393 0.0105,-3.7054 -0.114341,-0.232259 c -0.132146,-0.268434 -0.255164,-0.372351 -0.541433,-0.457364 -0.256684,-0.07624 -0.398734,-0.0742 -0.5954294,0.0085 -0.4645871,0.195316 -0.694275,0.619723 -0.5947761,1.099006 0.065072,0.313398 0.4509196,0.713534 0.6880732,0.713534 0.1045483,0 0.1156633,0.03174 0.1323193,0.378786 l 0.01358,0.282774 -0.1807953,-0.01746 C 9.6453993,18.936959 9.2435802,18.73766 9.0414651,18.535556 8.8208156,18.314906 8.6413145,17.999262 8.6116608,17.779748 c -0.03733,-0.276307 -0.052944,-0.30743 -0.1543414,-0.30743 -0.2571521,0 -0.7049024,0.331818 -0.8614894,0.638433 -0.079758,0.156137 -0.095665,0.241594 -0.095665,0.51375 0,0.387781 0.085699,0.593462 0.3638111,0.873203 0.2304667,0.231825 0.421497,0.315488 0.7227116,0.316542 l 0.2415943,7.88e-4 -0.011152,0.316847 -0.011153,0.316853 -0.1344276,0.0016 c -0.4613122,0.005 -0.9348347,-0.181427 -1.3057105,-0.514793 -0.2392421,-0.215024 -0.2657305,-0.213326 -0.4580326,0.02948 -0.4821725,0.608787 -0.3840781,1.479237 0.2223201,1.972892 0.2357282,0.191897 0.4831935,0.263081 0.8838486,0.25426 0.3642149,-0.0081 0.3507516,-0.01794 0.4399078,0.324095 l 0.058381,0.223971 -0.1411881,0.05906 c -0.1071974,0.04482 -0.2359703,0.05485 -0.5348619,0.04157 l -0.3936603,-0.01747 v 0.184286 c 0,0.101356 0.037038,0.28329 0.082301,0.404294 0.1383481,0.36975 0.5661623,0.722194 0.9119593,0.751285 l 0.1301249,0.01097 0.048801,-0.234708 c 0.1232962,-0.593142 0.4960043,-1.004487 1.0920539,-1.205284 0.3500654,-0.11793 0.3558754,-0.113783 0.3646724,0.259858 0.0075,0.31322 0.006,0.317994 -0.091835,0.338399 -0.4601699,0.0959 -0.7435473,0.439032 -0.7431211,0.899799 3.595e-4,0.38945 0.2123833,0.72484 0.5611161,0.887604 0.2496688,0.116535 0.6443238,0.08763 0.8691368,-0.06361 z M 8.8911904,21.633648 c -0.011844,-0.01891 -0.018418,-0.16246 -0.014813,-0.318688 l 0.00668,-0.284025 0.2152928,-0.04296 c 0.3799573,-0.0758 0.6979035,-0.376828 0.7575542,-0.717245 l 0.02935,-0.167564 0.3021736,0.0093 c 0.166171,0.005 0.309467,0.0169 0.318384,0.02576 0.03221,0.03221 -0.07096,0.430077 -0.162949,0.62857 -0.197714,0.426501 -0.7592417,0.831992 -1.2176758,0.879305 -0.116814,0.01184 -0.2220302,0.0063 -0.2338115,-0.01289 z m 4.1824646,3.466091 c 0.755676,-0.351861 0.648854,-1.552065 -0.156171,-1.754743 l -0.155561,-0.03915 0.005,-0.307073 c 0.003,-0.168888 0.01358,-0.315609 0.02424,-0.326041 0.03256,-0.03256 0.384352,0.06831 0.582022,0.166937 0.428574,0.213788 0.80375,0.72678 0.856353,1.170929 0.02205,0.185231 0.02303,0.186345 0.141327,0.16159 0.541199,-0.113139 0.984767,-0.622739 0.99774,-1.146301 l 0.0049,-0.195849 -0.279229,0.01358 c -0.361388,0.01746 -0.776935,-0.06133 -0.776935,-0.147618 0,-0.03425 0.03503,-0.166031 0.07781,-0.292774 l 0.07783,-0.230466 0.335036,0.01551 c 0.45487,0.0211 0.71079,-0.07348 1.010214,-0.372891 0.282876,-0.282877 0.393142,-0.556123 0.396458,-0.982429 0.0021,-0.267337 -0.01306,-0.339671 -0.116867,-0.556885 -0.121867,-0.255033 -0.32748,-0.499278 -0.420348,-0.499278 -0.02847,0 -0.135438,0.07432 -0.237692,0.165142 -0.378309,0.335992 -0.741396,0.487766 -1.166856,0.487766 H 14.010077 V 20.12245 19.815197 h 0.190588 c 0.413652,0 0.849448,-0.285729 1.04683,-0.686354 0.127808,-0.259383 0.124654,-0.719733 -0.0067,-0.976792 -0.168523,-0.329891 -0.620641,-0.67962 -0.878566,-0.67962 -0.103657,0 -0.113139,0.01219 -0.130874,0.169743 -0.04218,0.374291 -0.362234,0.873264 -0.701154,1.093137 -0.187219,0.121449 -0.493808,0.228987 -0.662718,0.23243 l -0.124828,0.0022 v -0.306516 c 0,-0.302627 0.0014,-0.306842 0.10563,-0.331905 0.729486,-0.175315 0.992695,-1.03137 0.490443,-1.595064 -0.140718,-0.15793 -0.476118,-0.301314 -0.704832,-0.301314 -0.369905,0 -0.755852,0.298151 -0.853009,0.658958 -0.02453,0.0911 -0.03457,1.464091 -0.02793,3.822242 l 0.0105,3.680081 0.132233,0.199267 c 0.182831,0.275457 0.402596,0.393986 0.731882,0.394723 0.183292,3.95e-4 0.301876,-0.02376 0.446165,-0.09097 z m 0.484492,-3.480969 c -0.40798,-0.08255 -0.860249,-0.439257 -1.062167,-0.837722 -0.115107,-0.227147 -0.22734,-0.625584 -0.185254,-0.657651 0.01568,-0.01184 0.171309,-0.01603 0.345573,-0.0085 0.307224,0.01306 0.316848,0.0162 0.316848,0.107702 0,0.350926 0.480708,0.783168 0.870979,0.783168 0.08535,0 0.08916,0.01219 0.08916,0.288045 0,0.158418 0.0043,0.301005 0.0093,0.316853 0.0141,0.04204 -0.195438,0.04644 -0.384747,0.0081 z m 30.206042,4.681788 c 0.262253,-0.04891 0.594943,-0.02157 0.816533,0.06707 l 0.159064,0.06367 0.122476,-0.113451 c 0.06743,-0.06241 0.269257,-0.232213 0.448808,-0.377352 0.308264,-0.249204 0.382082,-0.319345 0.383492,-0.36444 7.85e-4,-0.02476 -2.881491,-0.01115 -2.906353,0.01358 -0.0105,0.0105 0.03327,0.128121 0.09669,0.261783 0.0636,0.133661 0.127704,0.329453 0.142686,0.435074 0.01393,0.10563 0.03362,0.203049 0.04129,0.216529 0.007,0.01341 0.117248,-0.01746 0.243749,-0.06831 0.126485,-0.05106 0.329643,-0.111448 0.451648,-0.134201 z M 41.162372,14.889579 c 0.336942,-0.172165 0.327256,-0.124289 0.327256,-1.618856 v -1.315582 l -0.107843,-0.141465 c -0.276974,-0.363121 -0.81507,-0.336569 -1.041625,0.05139 -0.07491,0.127964 -0.07805,0.191486 -0.07421,1.384436 0.0052,1.112869 0.01219,1.264677 0.07178,1.380913 0.08676,0.167635 0.14077,0.220212 0.296069,0.287682 0.181083,0.07866 0.335373,0.07035 0.528827,-0.0285 z M 18.119548,12.968135 c 0,-0.9979 -0.0082,-1.135021 -0.0657,-1.2193 -0.08904,-0.128731 -0.132632,-0.171085 -0.230272,-0.223317 -0.105354,-0.05635 -12.665691,-0.06464 -12.8134625,-0.0085 -0.052092,0.01988 -0.143923,0.100487 -0.2040184,0.17929 l -0.1092532,0.143261 -0.00191,1.126389 -0.00191,1.126385 6.7133091,3.9e-5 6.713302,3.7e-5 z M 6.0912651,13.451923 c 0.027736,-0.01115 0.060855,-0.0098 0.073626,0.0031 0.012891,0.01289 -0.00994,0.02181 -0.050419,0.02037 -0.044756,-0.0019 -0.053834,-0.01097 -0.023276,-0.02328 z m 6.0513079,-0.21277 c -0.235824,-0.04831 -0.302403,-0.14368 -0.302403,-0.433104 0,-0.278426 0.0554,-0.366116 0.273494,-0.433056 0.200964,-0.06167 4.670688,-0.05817 4.850111,0.0037 0.07195,0.02484 0.162877,0.08845 0.202054,0.141308 0.08578,0.115787 0.106709,0.417157 0.03787,0.545764 -0.112093,0.209448 -0.02983,0.20283 -2.559892,0.205377 -1.288525,0.0012 -2.414077,-0.01219 -2.501234,-0.03014 z m 27.157895,0.0085 v -0.441688 l -3.125347,-0.01 -3.125329,-0.01 -0.129446,0.137373 c -0.104007,0.110211 -0.129445,0.16868 -0.129445,0.295496 0,0.173052 0.111326,0.372137 0.245876,0.439858 0.0547,0.02761 1.068525,0.03894 3.172264,0.03542 l 3.091688,-0.005 z m 9.481601,0.336053 c 0.244936,-0.21454 0.229081,-0.557677 -0.03327,-0.719774 -0.122477,-0.0756 -0.187391,-0.07716 -3.221586,-0.07716 h -3.096744 v 0.460874 0.460873 h 3.104475 3.104492 z m -4.911257,-2.929812 c -0.183524,-0.09319 -0.24964,-0.198249 -0.24964,-0.396349 0,-0.17138 0.0105,-0.187969 0.283822,-0.4470148 0.156101,-0.1479649 0.483059,-0.4245685 0.726618,-0.6146772 0.243577,-0.1901034 0.439801,-0.359001 0.436038,-0.3753183 -0.0052,-0.016203 -2.231025,-0.029094 -4.949517,-0.02838 l -4.94265,0.00126 -0.133627,-0.1172499 c -0.07352,-0.064479 -0.144777,-0.1683138 -0.15854,-0.2307333 -0.03345,-0.1522333 0.04146,-0.363886 0.162024,-0.4587958 0.09739,-0.076708 0.143732,-0.077406 5.045354,-0.077406 2.790984,0 4.955997,-0.014809 4.967722,-0.033642 0.0105,-0.01866 -0.289797,-0.2872118 -0.669457,-0.5971124 -0.379643,-0.3098987 -0.707715,-0.5960634 -0.72904,-0.6359249 -0.02178,-0.039844 -0.03886,-0.1444806 -0.03886,-0.2324547 0,-0.1307346 0.02422,-0.1838488 0.130665,-0.290569 0.109759,-0.1097933 0.158018,-0.1305603 0.303334,-0.1305603 0.151747,0 0.207027,0.026742 0.455098,0.2199699 0.831133,0.6474881 2.274823,1.8661837 2.371427,2.001819 0.04443,0.062492 0.08101,0.1401947 0.08101,0.1727041 0,0.032508 -0.09059,0.1361181 -0.201694,0.2302733 -0.647924,0.5500939 -2.321008,1.9272843 -2.437074,2.0060683 -0.158017,0.10725 -0.289518,0.117128 -0.452989,0.03413 z"
       id="path1" /></g></svg>
